<?xml version="1.0" encoding="UTF-8"?><svg id="_レイヤー_2" xmlns="http://www.w3.org/2000/svg" viewBox="0 0 56.9701538086 21.1929321289"><defs><style>.cls-1{fill:#f5b319;}</style></defs><g id="_レイヤー_1-2"><path class="cls-1" d="M26.450378418,9.232421875l-.0995483398.0708007812-.6779174805.4821166992-.2203979492.294128418-.5509033203.6611328125-.1656494141.0919189453c-.0919799805.0547485352-.0547485352.1466674805-.1466674805.1838989258-.2055053711.1640625-.3411254883.33203125-.4618530273.5003051758-.0261230469.0363769531-.0546875.0726318359-.0795898438.1090087891-.1173095703.1717529297-.2265014648.3433227539-.3773193359.5108032227l-.2940673828.514465332-.2751464844.5692138672c.3444213867-.1146240234.7744140625-.501159668,1.1057128906-.6772460938.0932006836-.0503540039.1814575195-.0901489258.2537841797-.0941162109l.8815307617-.7348022461.2543945312-.0883178711.1680908203-.0583496094c.8450317383-.8267822266,1.8732299805-1.6163330078,2.295715332-2.1680297852-.2940673828-.2203979492-.7158203125-.2751464844-1.432434082-.2933349609l-.177734375.1264038086ZM56.0698852539.3723144531l-.3076171875-.1354980469-.1656494141-.0729980469-.3719482422-.1638183594-.3278808594.1223144531c-.0167236328.0009765625-.033203125.0012207031-.048828125.0018310547-.0971069336.0040283203-.1859741211.0109863281-.2583618164.0229492188l-.4115600586.0680541992-.2412109375.3403930664-.3623046875.5112915039-.3253173828-.0430297852-.2758178711-.0364379883-.3017578125-.0399169922-.0803222656.0397338867-.3755493164-.1447143555-.3829345703.2976074219-.1787719727-.0484008789-.3856201172.2761230469c-.1374511719.098449707-.2369995117.2077636719-.309387207.3129882812l-.0718994141.0680541992-1.0471801758.9916992188c-.1653442383.14453125-.2978515625.3042602539-.4403076172.4595336914v-.8654785156h-6.9685668945v.3589477539l-.1567382812-.1504516602-.0635375977-.0609741211-.0428466797-.0296630859-.2338256836-.2434082031h-.6221923828c.033996582-.0325317383.0656738281-.0634155273.0947265625-.0924072266l.0520019531-.0520019531.0438232422-.0590820312c.1307983398-.1723632812.3436889648-.4528808594.3436889648-.8536376953V.1519165039h-.8130493164c-.1204223633-.0470581055-.2517700195-.0729370117-.3890991211-.0729370117h-.180480957l-.1690673828.0630493164c-.1363525391.0509033203-.3242797852.1196289062-.4783325195.1704711914l-.2256469727.0744628906-.1680908203.1680908203c-.0777587891.0777587891-.1616210938.1718139648-.244934082.266418457-.0123901367.0140991211-.0248413086.0282592773-.0371704102.0422973633l-.005859375.0024414062c-.1118164062.046081543-.2315063477.0953979492-.3521728516.1493530273-.0101928711-.0002441406-.020324707-.0003662109-.0303955078-.0003662109-.1616821289,0-.2952880859.0381469727-.3963012695.0798339844-.0386962891-.0040893555-.0778198242-.0061035156-.1174316406-.0061035156h-.3519897461l-.2383422852.143737793c-.0223388672.0134887695-.0474853516.0299072266-.0742797852.0482177734-.121887207.014831543-.2278442383.0476074219-.3242797852.0773925781-.0284423828.0088500977-.05859375.0188598633-.0852661133.025390625l-.2624511719.0452880859-.1832275391.1654052734c-.0104370117.0086669922-.0199584961.0166625977-.0288085938.0241699219l-.0496826172.0073242188-.174621582.1073608398c-.2139282227.1314697266-.4240112305.2981567383-.6093139648.4451904297-.0709228516.0562133789-.1392822266.1105957031-.2026977539.1583251953l-.1157226562.0869140625-.0862426758.1161499023-1.5733032227,2.118347168h-5.1050415039v-2.3235473633h-2.3225097656v2.3235473633h-6.6896362305v-2.3235473633h-.7457885742l.0003051758-.0006103516.0919799805-.1838989258.1055297852-.2111206055V.5169677734l-.8449707031-.1325683594-.348815918-.0547485352-.2166137695-.0339355469-.2109375.0596923828-.2576293945.0729980469-.250793457.0710449219-.1842041016.1844482422-.3486938477.3491210938-.038269043.0051879883-.1278686523-.0643920898-.3248291016.055847168c-.8482055664.1458129883-1.6866455078.3908081055-2.4974365234.6276245117-.3716430664.108581543-.7379760742.2157592773-1.0947875977.3094482422l-.151184082.0396728516-.1318969727.0839233398c-.1455078125.0926513672-.3198852539.1651000977-.4817504883.2442626953h-5.8784790039v4.0736083984l-.2731323242.3100585938-.4735107422.3631591797-.1233520508.0946044922-.0888671875.1276245117-.1893310547.2719726562-.1973876953.1350708008-.1754150391.1199951172-.1114501953.1809692383-.0297241211.0482177734-.234375.1526489258-.20703125.134765625-.1204223633.2156982422c-.1525878906.2731933594-.38671875.5368652344-.6345825195.8159790039-.1228027344.1382446289-.248046875.279296875-.371887207.4298706055l-.1396484375.0260009766-.1815795898.1307373047c-.1637573242.117980957-.4254760742.2225341797-.7025146484.333190918-.2575073242.1028442383-.5493774414.2194824219-.8309936523.3749389648l-.4193115234.2315063477-.0823974609.4718017578-.0737304688.4217529297-.1629638672.9326782227.9223632812.213684082c.0999755859.0231323242.1958618164.0371704102.286315918.0458374023.0013427734.2238769531.0151977539.4253540039.0278930664.6094970703l.0155639648.2438964844.0207519531.3822631836.1903076172.1903076172.0401611328.2424926758.2525634766.2329101562.4779663086.4407348633.2872314453.2648925781h.3036499023l.1213378906.123840332.3599243164.0366821289.7166137695.0729370117.1730957031.017578125.1688842773-.0418701172.0703735352-.0174560547.0314331055.0067138672.2810668945.0598754883.2699584961-.0985107422c.1080932617-.0393676758.2097167969-.0632324219.3137207031-.0892944336l.0023803711-.0006103516.4595336914.0521240234.0305175781.0034790039v2.8708496094h11.4617919922l.0188598633.033996582c.0380859375.0685424805.0771484375.1287841797.1157836914.1818237305l.0610351562.1625366211c.1146850586.3051757812.2797851562.5662231445.4564208984.8018798828.0623168945.2166748047.1705932617.3739624023.237487793.462097168l.1572875977.4237060547.538269043.1143798828.0623168945.0132446289.1289672852.0888671875.1492919922.1028442383.1759643555.0439453125.514465332.1284179688.1638183594.0408935547.1681518555-.0151367188c.1859741211-.016784668.3549804688-.0540771484.5115966797-.1137084961l.2270507812.0561523438.3475341797-.198425293.1573486328-.092590332c.046875-.0280151367.0877685547-.0557250977.129699707-.0764770508l.3051147461-.0241699219.255065918-.2379150391.4830932617-.450378418.4725952148-.2998657227.3602294922-.228515625.0578613281-.287109375c.1342773438-.1619262695.4683227539-.463684082.6573486328-.6345214844l.165222168-.1498413086.2317504883-.211730957.0361938477-.1600952148.2953491211-.2650146484.2927246094-.2626953125.008605957-.0950927734.0508422852-.0313720703.475402832-.2929077148v-.272644043l.2378540039-.0796508789.0049438477-.0301513672.1464233398.0737304688v.5671386719h.3070068359v1.2143554688h2.3225097656v-1.7493286133c.1060791016-.0697631836.2177124023-.143371582.3471679688-.2288818359l.215637207-.1420288086c.1390380859-.0540161133.2680053711-.1300048828.3984985352-.2022705078h1.3612060547v-1.505065918l.0440063477-.0871582031.1823730469-.1823120117.001953125-.001953125v.0366821289c-.0048828125.0166625977-.0100097656.0325317383-.0140380859.045715332-.0251464844.0830688477-.0596923828.1968994141-.0596923828.350769043,0,.7088012695.6303100586,1.3305664062,1.348815918,1.3305664062.365234375,0,.6276245117-.1388549805.8201293945-.2880859375v.3008422852h2.0435180664v2.3225097656h4.6460571289v-2.5816650391l.0712890625-.0684814453.6754150391-.6480712891.0059814453-.0006713867.1578369141-.0788574219.2006835938-.1003417969.2494506836-.065612793.2770385742-.0734863281.035949707-.0095214844.0124511719-.0043334961v.7116699219l.5527954102.2764282227c.0271606445.0136108398.0560913086.0189208984.0836791992.0306396484v2.6123046875h6.9685668945v-4.1702880859l.1206054688-.1070556641.2341918945-.2077636719.3151245117-.1599121094h1.6525878906v-.9660644531c.2882080078-.1599731445.5856933594-.326171875.8959960938-.5496826172l.3316040039-.2388305664.0694580078-.4027099609.0189819336-.110168457.2653808594-1.5393676758-.6007080078.1605224609.0993652344-.112487793.2445068359-.2767944336,1.3732910156-.6298217773-.8193969727-.6567382812.1143188477-.2243041992.2774047852-.5441894531-.3574829102-.495300293-.2386474609-.3305664062-.1619262695-.2243652344-.2542724609-.1091918945-.1292114258-.055480957-.3142089844-.1349487305.0222167969-.0399169922c.0537719727-.0966796875.1197509766-.1859130859.1830444336-.2749023438.1243286133-.1746826172.2730712891-.3837280273.3861083984-.6372070312l1.3927001953-1.7287597656,1.5556030273-1.5201416016.1455688477-.1422729492.0783691406-.1878662109.0919799805-.2203369141.5779418945-1.3850708008h-.9002685547ZM42.1691894531,4.4404296875l-.0806274414-.0806274414c.1364135742-.1693725586.2497558594-.3584594727.3425292969-.5585327148v.8568725586h2.3225097656v1.1440429688c-.0717163086-.0073852539-.1385498047-.010925293-.1959228516-.010925293-.0676879883,0-.1625976562.0046386719-.2611083984.0102539062-.0632324219.0036010742-.1289672852.0079956055-.1796875.0079956055h-.0833129883l-.0822143555.0137939453-.3305053711.055480957-.2247924805.0377197266-.1862182617.1314086914-.3654174805.2578125h-.2197265625l-.1442260742.0445556641-.2386474609.0737304688-.4258422852.1315917969-.1447753906.3135986328-.0205688477.0097045898-.2152099609.1017456055h-1.3269042969v-.1747436523c.1096191406-.073059082.2196044922-.1392211914.2977294922-.1860961914l.0330200195-.0197753906.0314331055-.0223388672c.1375732422-.09765625.3325805664-.2521362305.5029907227-.446472168.1084594727-.1079711914.243347168-.2413330078.2947387695-.2809448242l.1669311523-.1104736328.094543457-.154296875c.1433105469-.2135620117.2230224609-.4727783203.2250976562-.7310180664l.4141845703-.4140625ZM41.1958007812,3.2090454102h.3123168945c.0182495117.0189819336.0546875.0372314453.0736694336.055480957-.0919189453.3670043945-.6246337891.8267822266-.8450317383,1.1390991211,0,0,0,.0182495117.0182495117.0364990234l-.055480957.0554199219c.0182495117.1649169922.055480957.2750854492.055480957.348815918,0,.0547485352-.0182495117.1284179688-.055480957.1838989258-.110168457.0729370117-.2932739258.2568359375-.458984375.4217529297-.0919189453.1102294922-.2203369141.2211303711-.3487548828.3123168945-.459777832.2758789062-.9552612305.5881958008-1.1209106445,1.0844116211-.0205078125.0307617188-.0347900391.0825805664-.0469970703.1339111328-.0095214844.0399169922-.0179443359.0804443359-.0259399414.1047363281-.0737304688.1466674805-.3313598633.2750854492-.459777832.2750854492-.0182495117-.0182495117-.0919189453-.0547485352-.1284179688-.0547485352.0182495117-.110168457.0364990234-.1838989258.0182495117-.2203369141l.061706543-.1047363281.7285766602-1.2365112305c-.0189819336-.0729980469-.0554199219-.1466674805-.1291503906-.2203979492v-.1284179688c0-.0364990234.3677978516-.5327148438.514465332-.7895507812.0919189453-.0737304688.2576293945-.1838989258.3677978516-.2758789062-.0372314453-.0737304688.110168457-.2940673828.1831054688-.3860473633.0372924805-.0911865234.0737304688-.2385864258.3305664062-.4407348633.0368652344-.0182495117.2435913086-.0917358398.464050293-.1607055664.1102294922-.0344238281.2238769531-.0678710938.3215332031-.0925292969.0975952148-.0247192383.1791992188-.0408325195.2251586914-.0408325195ZM19.7607421875,6.9806518555h6.6896362305v.3047485352c-.0311889648.0083618164-.0715332031.0145263672-.1004638672.0225830078-.0968017578.0269775391-.2065429688.0574951172-.2598876953.0574951172l-.4403076172-.1146240234-.3759155273.2572631836c-.2090454102.1428222656-.4067382812.2701416016-.5969848633.3928222656-.567199707.3657836914-1.1029052734.7112426758-1.6853637695,1.2778320312l-.0843505859.0820922852-.0630493164.0994262695c-.1741943359.2749633789-.4107055664.5330200195-.6610107422.8062744141-.0178222656.0194091797-.0357055664.0390014648-.0537719727.0586547852-.1272583008.0162963867-.2332763672.0521240234-.3229980469.0824584961-.0181274414.0049438477-.0361938477.0102539062-.0543823242.0158081055l.022277832-.0396728516.0083007812-.0714111328.6821289062-.5490722656-.3713378906-.4642333984.0895385742-.3079223633-.1630859375-.3433837891-.1656494141-.348815918-.2470092773-.5200805664-.5738525391-.0474853516-.4407348633-.0364379883-.2476806641-.0205078125-.228515625.0978393555-.3555297852.1522827148v-.8439331055ZM6.4568481445,14.4877319336l-.2940673828.0737304688-.2568969727.1649169922-.0822753906-.0093383789-.5606079102-.063659668c-.2021484375.0547485352-.3860473633.0911865234-.5881958008.1649169922l-.2568359375-.0546875-.2940673828.0729370117-.7166137695-.0729370117c-.0364990234-.0372314453-.110168457-.0737304688-.1831665039-.1656494141h-.3123168945l-.4779663086-.4407958984-.0364990234-.2203369141-.1466674805-.1466674805c-.0189819336-.349609375-.055480957-.6619262695-.0372314453-1.0471801758.0182495117-.1474609375.1284179688-.3495483398.0372314453-.5327148438l-.3495483398-.1838989258c-.2568359375-.0364990234-.5137329102,0-.7530517578-.055480957l.0736694336-.4217529297c.5327148438-.2940673828,1.1755981445-.4415283203,1.6345825195-.7720947266l.294128418-.0546875c.4224853516-.5881958008.973449707-1.0471801758,1.322265625-1.6718139648l.4224853516-.2750854492.1473999023-.2393798828.348815918-.2386474609.294128418-.4224853516.1380615234-.1058959961.4128417969-.3166503906.404296875-.458984375.2203979492-.110168457.2568359375-.3860473633c.4042358398-.3670654297.86328125-.5874023438,1.2857666016-1.1018676758l.3860473633-.1838989258c.052734375-.0791015625.1231079102-.1425170898.1994628906-.2005004883.0151367188-.0112915039.0311889648-.021484375.046875-.0322265625.1696777344-.117980957.3676147461-.2088012695.5318603516-.3204956055.0648803711-.044128418.1287841797-.0888061523.1770019531-.1444091797.3670654297-.1656494141.7158813477-.4407348633,1.0654296875-.6246337891.6611328125-.3677978516,1.3040161133-.5692138672,1.9104003906-.9552001953.6845092773-.1797485352,1.4038696289-.4033203125,2.127746582-.5993652344.0000610352,0,.0001220703-.0000610352.0001831055-.0000610352.4606323242-.1247558594.9227294922-.2407226562,1.3798828125-.3193359375l.110168457.055480957.6801147461-.0919799805.5874633789-.5881347656.2575683594-.0729980469h.0000610352l.3487548828.0547485352v.3305664062l-.0919189453.1838989258-.2568359375.1284179688c-.0002441406.0002441406-.0004272461.0003662109-.0006713867.0006103516-.11328125.11328125-.2171020508.2098388672-.3065795898.3187255859-.041015625.0498657227-.0864257812.0951538086-.1152954102.1586303711v.7348632812l-.1473999023.2750854492c-.6056518555.2021484375-1.2858276367.404296875-1.8549804688.7166137695l-.4384155273.4384155273-.516784668.516784668-.7895507812.9370117188-.0919799805.3852539062-.2385864258.2021484375-.1474609375-.0182495117-.110168457-.348815918c.2576293945-.2758178711.4224853516-.6983642578.7530517578-.9369506836.0182495117-.2568359375.2386474609-.4225463867.4225463867-.6793823242-.0364990234-.1473999023.0182495117-.2393798828-.0729370117-.5699462891l-.2758789062-.1831054688c-.4224853516-.055480957-.7530517578.0546875-1.1390991211.0729370117-.4772338867.1284179688-1.1755981445.5327148438-1.7083129883.6063842773-.1284179688.1838989258-.4225463867.2750854492-.5137329102.4407958984-.2758178711.1466674805-.5326538086.3123168945-.8267822266.4772338867l-.5327148438.4962158203-.6428833008.4224853516-.2203369141.2758789062c-.2393798828.110168457-.4225463867.348815918-.5699462891.5874023438-.1284179688.1656494141-.2568969727.2940673828-.4225463867.404296875l-.0364379883.1838989258-.3670654297.2385864258c-.2940673828.3305664062-.5881958008.6611328125-.8822631836,1.0836791992.0189819336.0364379883-.0364990234.2020874023.110168457.2568359375.7792358398-.1223754883,1.4058837891-.2568359375,1.9661254883-.3726196289.0004272461-.0000610352.0008544922-.0001831055.0012817383-.0002441406.2936401367-.0606689453.5696411133-.1154785156.8373413086-.1610107422.0147705078-.0025634766.0309448242-.0057373047.045715332-.0081787109.2769165039-.046081543.5473632812-.0817260742.8234863281-.1008300781h.0002441406c.1468505859-.0399780273.2904052734-.0615844727.4329223633-.0740966797.0562744141-.0049438477.1126098633-.0045776367.1687011719-.0068359375.0707397461-.0028076172.1416015625-.0086669922.2124633789-.0086669922.0203857422,0,.0414428711.0004882812.0618896484.0006103516.1384887695.0009155273.2785644531.0037231445.4208984375.0035400391.1630859375-.0001831055.3298339844-.0048217773.5034179688-.0247802734.110168457-.0364379883.2021484375-.0911865234.3670043945-.0911865234.2021484375.1284179688.4962768555.1102294922.6983642578.3305664062-.0269165039.0665283203-.0668334961.1881103516-.0972290039.3073730469-.0115966797.0455322266-.0266723633.0926513672-.0319213867.1334228516-.2634277344-.037902832-.5271606445-.0777587891-.7907714844-.1333618164-.1220092773-.0256958008-.2439575195-.0463867188-.3658447266-.0870361328-.0981445312.009765625-.1870117188.0220336914-.2781982422.0255126953-.0121459961.0004272461-.024597168.0033569336-.0368652344.0033569336-.0678710938,0-.1386108398-.0074462891-.2176513672-.0288696289-.1672363281.0059204102-.3439331055.0436401367-.5236206055.0870361328h-.0013427734c-.3724975586.0900268555-.7631835938.2131347656-1.1468505859.1880493164l-.348815918.2203979492-.7348022461.0372314453-1.7265625.4224853516c-.1931762695.0966186523-.3874511719.1766967773-.6006469727.2656860352-.0416870117.0173950195-.0889282227.038269043-.1322021484.0565185547-.0793457031.0335083008-.1580810547.0664672852-.2444458008.1047973633-.1296386719.0575561523-.2676391602.1214599609-.4186401367.1968994141-.1292114258.2758789062-.2203979492.5327148438-.4225463867.7903442383-.1291503906.2203369141.0729370117.3852539062-.1473999023.6611328125l.0182495117.4224853516c.1656494141.055480957.1291503906.2758789062.2020874023.404296875l.2758789062.2750854492c.1838989258,0,.2940673828.1291503906.458984375.2021484375h1.1938476562l.514465332-.1649169922c.1838989258,0,.3677978516-.055480957.6063842773-.0919799805l.514465332-.3305664062c.0919799805.0182495117.1649169922,0,.2386474609.0919799805.3305664062-.2576293945.7530517578-.3123168945,1.1390991211-.6428833008l.2933349609-.0372314453,1.0106811523-.5327148438c.0963745117-.0641479492.2213134766-.1366577148.3461303711-.2149658203.0010375977-.0006713867.0018310547-.0010986328.0028686523-.0017700195.1597900391-.1003417969.3193969727-.2109375.4223022461-.3342285156.2021484375-.1284179688.4225463867-.3123168945.5874633789-.2750854492.055480957.0729370117-.0364990234.3115844727-.1102294922.458984375-.0546875.0547485352-.1466674805.1102294922-.2385864258.1466674805-.0018310547.0009155273-.0026245117.0034179688-.0043945312.0043945312-.0684814453.0387573242-.0903320312.1258544922-.1977539062.1977539062-.7530517578.4225463867-1.4689331055.918762207-2.2219848633,1.3959960938l-.514465332.1656494141-.6611328125.404296875c-.5327148438.1284179688-1.0289306641.403503418-1.4879150391.4954223633l-.3860473633.2021484375ZM14.4515380859,8.5560913086l-.0364990234.0431518555-.0599365234.1961669922-.0065307617.0213623047-.447265625.4864501953h-.2260742188l.2097167969-.5177001953-.4271850586-.4656982422c-.309753418-.3377075195-.6810302734-.4473876953-.8804931641-.5062866211-.0192260742-.0056762695-.0383300781-.0108032227-.0568847656-.0167236328l-.2070922852-.1315917969h-.2908325195c-.2659301758,0-.4652099609.0615844727-.5915527344.1079101562-.0982666016.0069580078-.1940917969.0085449219-.288269043.0085449219l-.2253417969-.0022583008-.248046875-.0023803711c-.2801513672,0-.6115722656.0123901367-.975402832.0988769531-.4066162109.0327758789-.7945556641.0944213867-1.198425293.1712646484.0247802734-.0298461914.0494384766-.060546875.0739746094-.0922241211l.0325317383-.0419311523.0278930664-.0451660156c.1065063477-.1724243164.1605834961-.2164916992.1663818359-.2209472656l.2152099609-.0991210938.1188964844-.1688232422.1211547852-.1516723633.5100708008-.335144043.0705566406-.0463867188.0618286133-.0576171875.4470825195-.4164428711c.0953369141-.0548706055.1874389648-.1095581055.278137207-.1634521484.1414794922-.0840454102.2788696289-.1661376953.4221191406-.2423095703l.2630004883-.139831543.0705566406-.1281738281c.0564575195-.0371704102.1237182617-.0817260742.1948242188-.1367797852.3278808594-.0876464844.6491699219-.2244262695.9415893555-.3489379883.0814819336-.0346679688.1640625-.0698852539.2421264648-.1017456055-.0758056641.1016845703-.1416015625.2012329102-.2020263672.2927246094-.0643310547.0974121094-.130859375.1981811523-.1760253906.2465209961l-.3986206055.4268798828.1759033203.5568847656.110168457.348815918.1934814453.612487793.6374511719.0787963867.1473999023.0181884766.434753418.0537109375.3342285156-.2831420898.2386474609-.2020874023.2501831055-.2119750977.0761108398-.3189086914.0368652344-.1544799805.6092529297-.7230224609.8175048828-.8175048828c.2870483398-.1436767578.6202392578-.2624511719.9570922852-.3762207031h.4425048828v2.4094848633l-.3815917969.0938720703-.2692260742.0739746094-.95703125.0840454102-.3624267578.0317993164-.2572631836.2572631836-.4224853516.4224853516-.3634033203.3634643555.0267333984.1615600586ZM17.1048583984,16.2666015625c-.0003051758.0017700195-.000793457.0034179688-.0010986328.0051879883h-8.9566650391v-1.3662719727c.1424560547-.0532226562.2880249023-.1118774414.4180908203-.1432495117l.1530151367-.0368652344.1343383789-.0821533203.559387207-.3421020508.4009399414-.1290893555.1212158203-.0390014648.1076049805-.0681762695c.2341308594-.1483764648.4647216797-.2985229492.6939697266-.4478149414.5082397461-.3310546875.9883422852-.643737793,1.4820556641-.920715332l.0342407227-.0192260742.0237426758-.0158691406-.3124389648.3259277344-.1228637695.1281738281-.0712890625.1626586914-.2575683594.5881958008-.2144165039.489440918.2081298828.3256835938.0157470703.0778198242.0280761719.1394042969-.0076904297.1013793945-.0510253906.6697387695.6006469727.3005371094.0729370117.0364990234.3033447266.1517944336.3330688477-.0640869141.4780273438-.0919799805.0935668945-.0180053711.0885009766-.0353393555.3670043945-.1466674805.1657104492-.0662231445.1325683594-.1193847656.5509033203-.4962768555.1084594727-.09765625.5350952148.4183349609.2575683594.2014160156.4343261719.3394775391.5189208984-.1859130859.5738525391-.2056884766v.6760864258ZM17.1853637695,14.4512939453l-.0182495117.0546875-.973449707.348815918-.2575683594-.2014160156.0554199219-.1473999023.807800293-.5874023438.4415283203-.5509643555.0364990234-.1473999023.3305664062-.2203979492.110168457-.2385864258.3670654297-.4225463867.055480957-.1838989258.4224853516-.6246337891.6428833008-1.267578125.0919799805-.2568359375.2203369141-.2385864258-.0372314453-.2203979492-.110168457-.055480957-.6611328125.2576293945-1.212097168.86328125-.2203369141.1831054688-.4407958984.404296875-.4261474609.4261474609-.0883178711.0883178711-.3487548828.2940673828-.294128418.348815918-.3123168945.2940673828-.6428833008.7713623047-.2203979492.3305664062-.3487548828.3487548828-.1474609375.2758789062-.5509033203.4962158203-.3670654297.1466674805-.4779663086.0919799805h-.0000610352l-.0729370117-.0364990234.0182495117-.2393798828-.055480957-.2750854492.055480957-.0919799805-.1292114258-.2020874023.2576293945-.5881958008.4225463867-.4407348633.1284179688-.2568969727.3305664062-.4042358398.0919189453-.2386474609.1656494141-.2203979492v-.3859863281l.0375976562-.1065673828h.0000610352l.0725708008-.2058105469-.110168457-.3487548828-.055480957-.0547485352v-.110168457l.8450317383-.9005126953.6246337891-.6793823242.0729370117-.2385864258.2021484375-.2393798828-.0182495117-.110168457.4225463867-.4225463867,1.0471191406-.0919189453.3305664062-.0911865234.1427001953-.0350952148.9044799805-.2225341797.2386474609.0182495117.0182495117.110168457-1.2485961914,1.2310791016-.0585327148.0687866211-.6762695312.7944946289-.1838989258.458984375-.1284179688.2021484375-.1657104492.2203369141.055480957.0372314453.2021484375-.0372314453,2.0753173828-1.4696655273.8450317383-.403503418.6793823242-.294128418.514465332-.2203369141.4407348633.0364379883.1657104492.348815918-.1284179688.4415283203.0729370117.0911865234-.1831665039.1473999023h-.0372314453l-.0364379883.3123168945-.514465332.9180297852-.1838989258.2575683594-.1102294922.3853149414-.3670043945.5699462891.164855957.0546875.1657104492-.0919189453.1466064453-.0547485352.7348632812-.3305664062.2758789062-.0737304688c.2020874023-.0736694336.4772338867-.164855957.6246337891-.2020874023.1649169922-.0737304688.2568359375-.1102294922.3852539062-.1466674805.0606079102-.0204467773.1009521484-.0322265625.1283569336-.03515625.002746582-.0002441406.0104370117-.0035400391.0128173828-.0035400391.0163574219,0,.0245361328.0061035156.0245361328.0204467773,0,.0364990234-.055480957.0729370117-.1657104492.1284179688-.110168457.0737304688-.2385864258.1284179688-.3670043945.2021484375-.2576293945.1466674805-.514465332.2933349609-.7713012695.4407348633l-.2393798828.2203979492-.1466674805.0182495117-.6064453125.5326538086-.2021484375.0364990234-.7530517578.6801147461-.2933349609.1102294922-.4224853516.3670043945-.349609375.2758789062-.7895507812.2021484375ZM20.0305175781,13.9492797852l.0095214844-.008605957c.0003662109.0029907227.0013427734.0056152344.0017089844.008605957h-.0112304688ZM26.5544433594,13.8083496094l-.0182495117.2568969727c-.0919799805,0-.1838989258.055480957-.2568969727.0736694336l-.1291503906.294128418c-.2568359375.2203369141-.1649169922.4772338867-.348815918.6611328125l-.5874023438.6056518555c-.0372314453.0919189453-.0919799805.2021484375-.110168457.3123168945l-.1657104492.055480957c-.0441894531.0661621094-.0767822266.1356201172-.1068725586.2042236328-.0448608398.1024780273-.0770263672.2034301758-.0770263672.2912597656l-.4772338867.2940673828-.0181884766.2021484375-.5327148438.4779663086-.0372314453.1649169922c-.4225463867.3860473633-1.0464477539.918762207-1.1019287109,1.1938476562l-.5509033203.3495483398-.5509643555.513671875c-.2393798828.0190429688-.4042358398.1474609375-.6611328125.294128418l-.2211303711-.0547485352c-.1284179688.1102294922-.2568359375.1649169922-.458984375.1831665039l-.514465332-.1284179688-.2933349609-.2021484375-.2576293945-.0547485352c-.0546875-.1473999023-.2203369141-.2203369141-.1838989258-.4224853516-.164855957-.2021484375-.3670043945-.459777832-.4772338867-.7530517578.0028686523-.0115356445.0065917969-.0173339844.0100708008-.0266723633.0188598633-.0501708984.0424194336-.0797119141.0264282227-.1572875977-.110168457-.110168457-.1831054688-.1284179688-.2750854492-.2940673828l.0729370117-.1649169922c-.2568359375-.3859863281-.110168457-.8822631836-.2013549805-1.3229980469,0-.0546875.0546875-.2385864258.0546875-.348815918.1657104492.1102294922.1838989258.294128418.2568969727.4962158203.1109008789.0547485352.2393798828.2021484375.3859863281.2203979492v.110168457c.2758789062.0182495117.514465332.3123779297.8450317383.514465332.1284790039-.110168457.3305664062.0729980469.5692138672.1831665039.3495483398,0,.6983642578,0,1.0836181641-.0182495117l.2758789062-.1838989258.2940673828-.0364379883.404296875-.294128418c.0546875-.0919189453.1649169922-.1284179688.1649169922-.2933349609.3305664062-.055480957.3123168945-.4224853516.7530517578-.5699462891l.918762207-1.0471191406.4042358398-.3853149414c.3115844727-.2385864258.4035644531-.569152832.6239013672-.9187011719l.2021484375-.1102294922c.0061645508-.0076904297.0107421875-.0168457031.016784668-.024597168.1878662109-.2389526367.3439331055-.5091552734.5006103516-.7780761719.2006835938-.3529663086.4053344727-.6998291016.6460571289-1.0074462891l.0000610352-.0001220703c.0701904297-.0896606445.1346435547-.1854858398.2142333984-.2650756836l-.0547485352-.3677978516h-.1291503906l-.4954833984.4407348633-.2940673828.0737304688c-.2263183594.2318725586-.4643554688.428527832-.7056274414.6154174805-.1412963867.1098632812-.2833251953.2173461914-.426574707.3213500977-.4063720703.2940673828-.8154907227.5798950195-1.2007446289.9371948242-.0598754883-.0059814453-.1043701172.0090942383-.1452636719.0307006836h.0374145508c-.1002807617.0380249023-.1724243164.1208496094-.2964477539.1896362305-.1909179688.0430908203-.3697509766.1044921875-.5503540039.1638793945-.1742553711.0582885742-.3543701172.1088867188-.5440673828.1461181641-.0192260742.0037841797-.0356445312.0114135742-.0551757812.0147705078v-.0028686523c-.1825561523.0314331055-.3745117188.049621582-.5951538086.0269165039-.0737304688-.2203369141-.1838989258-.5327148438-.1838989258-.7895507812.1473999023-.3305664062.3677978516-.6801147461.6246337891-.9552001953v-.294128418l.1544189453-.087890625.1032104492-.0587158203c.0182495117-.1102294922.0364379883-.1657104492.0364379883-.3313598633l.1102294922-.0182495117c.0656738281-.1176147461.1467895508-.2197875977.2229614258-.3269042969.0000610352-.0001220703.0001831055-.0001831055.0002441406-.0003051758.4352416992-.6117553711,1.0053100586-1.0891113281,1.4113769531-1.7298583984.6983642578-.6793823242,1.3412475586-1.0099487305,2.1490478516-1.5616455078.1075439453.0280151367.2099609375.0284423828.3102416992.0231933594.0903320312-.0052490234.1776733398-.018371582.2615966797-.0377807617.2514648438-.0573120117.4761352539-.1459350586.6592407227-.1138305664l.4962158203-.3123168945.1284179688.0372314453c.0182495117.0546875.0546875.1284179688.1466674805.2385864258l.3860473633-.1284179688c.1539306641.1369628906.3559570312.1170043945.5466308594.1728515625.0135498047.0039672852.0274047852.0054931641.0407714844.0103149414l.5327148438-.4954833984c.0413818359-.0549926758.0712280273-.1100463867.0939331055-.1665039062.00390625-.0098266602.0053710938-.0205078125.0089111328-.0303955078.0576171875-.1613769531.0659179688-.3353881836.1174926758-.5562133789l.6246948242-.3123168945h.3305664062l.1801757812.3178100586.1321411133.2331542969c-.3305664062.6793823242-.9370117188,1.2302856445-1.267578125,1.8739624023,0,.0364379883.0372314453.1284179688.0182495117.2013549805l-.0204467773.0140991211-.2728881836.1880493164-.1473999023.4225463867c-.7895507812,1.1208496094-1.432434082,2.2409667969-2.2219848633,3.4537963867l-.3677978516.4407348633ZM31.2947998047,13.0735473633c-.0372314453.0364379883-.0737304688.1284179688-.1474609375.2203369141-.0110473633.0111083984-.0354003906.02734375-.051940918.0408325195v.0000610352c-.0001220703.0001220703-.0003662109.0001831055-.0004882812.0003051758-.0650634766.0532226562-.1571044922.1168212891-.2598876953.160949707-.0729370117.0729980469-.1284179688.2021484375-.2203369141.294128418-.0729980469,0-.1831665039.0729370117-.2203979492.1466674805-.0182495117,0-.0729370117.0181884766-.0919189453.0181884766-.1649169922.055480957-.2203979492.2568969727-.4407958984.6983642578.0182495117.0364990234,0,.1284790039-.0546875.1831665039,0,.1284179688-.1656494141.404296875-.3305664062.4407348633-.1838989258.1102294922-.404296875.2393798828-.5881958008.294128418-.4772338867.3123168945-1.377746582.9187011719-1.4506835938.9187011719h-.1838989258c-.0364990234-.055480957-.0919189453-.110168457-.110168457-.110168457,0-.0919799805-.0737304688-.2203979492-.1838989258-.2758789062v-.1466674805c.1284179688-.0554199219.2385864258-.110168457.3677978516-.1284179688.1466674805-.0919189453.1831054688-.2203369141.2568359375-.3312988281.1284179688-.0911865234.348815918-.3305664062.3860473633-.4772338867,0-.0364990234.0729370117-.110168457.110168457-.1284179688.0547485352,0,.1284179688-.055480957.2021484375-.0919799805.1831665039-.2385864258.2013549805-.3860473633.3115844727-.6063842773.0736694336-.1284179688.1838989258-.1831665039.2575683594-.2021484375.0079345703-.0126342773.0154418945-.0288696289.0233154297-.0422363281.0839233398-.1419067383.1668701172-.3176269531.233581543-.4349975586.0736694336-.1284179688.1473999023-.2940673828.2385864258-.458984375,0-.2203979492.2211303711-.3305664062.3495483398-.4962158203.0182495117-.0737304688.0182495117-.1466674805.0182495117-.2203979492l.1838989258-.1656494141c.1348266602-.1584472656.235168457-.3027954102.3248901367-.4437866211.0215454102-.0342407227.0473022461-.0700073242.0667114258-.103515625.0857543945-.1479492188.1531982422-.2897338867.1958618164-.4261474609v-.0919799805l.6091308594-.8444213867v-.0000610352l.5299682617-.7346191406c0-.0189819336,0-.0737304688-.0372314453-.110168457l3.5354003906-4.7601928711,1.1304931641-1.5220947266c.1102294922-.082824707.2342529297-.1838989258.3605957031-.2825927734.1262817383-.0986938477.2549438477-.1950073242.374206543-.2683105469.0642700195-.0095214844.1284790039-.041809082.1904296875-.0831298828s.1215820312-.0916748047.1766357422-.1372680664c.110168457-.0189819336.2940673828-.0919189453.3495483398-.0919189453.0547485352,0,.0919799805.0181884766.1466674805.0181884766.055480957,0,.2203979492-.1466064453.3123779297-.2020874023h.0736694336c.0547485352,0,.0729370117.0364379883.1284179688.0736694336h.0547485352c.0372314453,0,.110168457-.0372314453.1838989258-.0736694336.0736694336-.0364990234.1284179688-.0737304688.1466674805-.0737304688.055480957,0,.1291503906.0189819336.1838989258.0372314453.2385864258-.1292114258.5327148438-.2393798828.7902832031-.3495483398.1284179688-.1284179688.2750854492-.3123168945.4035644531-.4407958984.082824707-.02734375.1747436523-.0594482422.2643432617-.0915527344.0895385742-.0321044922.1767578125-.0642089844.2500610352-.0915527344h.0000610352c.0372314453,0,.0554199219.0182495117.0554199219.0364990234.0182495117.0181884766.0364990234.0364379883.0547485352.0546875h.055480957l.0181884766-.0182495117h.0182495117c0,.0737304688-.0919189453.1838989258-.1466674805.2576293945-.053527832.053527832-.1173706055.114074707-.1878662109.1795654297-.2280273438.2125244141-.5266113281.4786376953-.7932739258.7454833984-.2995605469.2997436523-.5575561523.5990600586-.6169433594.8197021484-.0737304688.1102294922-.2940673828.0737304688-.3677978516.2386474609.1292114258.2758178711-.3852539062.4779663086-.5874023438.7166137695-.0372314453,0-.0919799805.0546875-.1284179688.110168457-.0671386719.0819091797-.1489257812.1784667969-.2327880859.2771606445-.0001831055.0001831055-.0003051758.0004272461-.0004882812.0006103516-.0432128906.0509033203-.0885009766.1037597656-.1357421875.1586914062-.0005493164.0006713867-.0010986328.0012817383-.0016479492.001953125-.0866088867.1006469727-.1739501953.2020874023-.272277832.3146362305-.0736694336.0737304688-.1291503906.2021484375-.1838989258.294128418v.0364379883c-.2385864258.3123168945-.5509033203.6983642578-.569152832.86328125-.0372314453.0182495117-.1292114258.110168457-.1838989258.1656494141h-.0737304688c-.0546875-.055480957-.110168457-.110168457-.110168457-.2021484375,0-.2575683594.4962158203-.6983642578.6246337891-.8632202148v-.0737304688c-.0364379883-.0182495117-.110168457-.0546875-.1656494141-.0546875-.0546875,0-.1831665039.0181884766-.2750854492.0364379883-.055480957.0364990234-.0919799805.0919799805-.1473999023.110168457,0,0-.0182495117,0-.0547485352-.0181884766-.0737304688.110168457-.2568359375.2203369141-.2568359375.3670043945-.0189819336.0182495117-.0737304688.0182495117-.1109619141.0182495117-.0729370117.110168457-.1831665039.2393798828-.2933349609.3305664062-.0372314453.1292114258-.1473999023.2576293945-.2203369141.3677978516-.0182495117,0-.0372924805-.0182495117-.0737304688-.0182495117-.0364990234.1284179688-.1284179688.2386474609-.2203979492.3305664062-.0364379883.0364990234-.2203369141.2021484375-.1656494141.294128418h-.0911865234c-.0061645508.0120849609-.0159301758.0293579102-.0236816406.0432128906-.0152587891.0274047852-.0317382812.0567626953-.0480957031.0880126953-.0250854492.0479125977-.0479736328.0981445312-.057434082.1438598633-.0919189453.110168457-.2203369141.1838989258-.2021484375.2940673828-.8814697266.8267822266-1.1383056641,1.1573486328-1.2857666016,1.4506835938-.0911865234.0189819336-.1649169922.1292114258-.2385864258.2021484375-.1466674805.1473999023-.3305664062.7348632812-.514465332.9005126953l-.403503418.6246337891-.2021484375.348815918c-.0198364258.098449707-.0618896484.1760864258-.1100463867.2534790039-.0576171875.0942382812-.1253051758.1903686523-.1944580078.319152832-.0343017578.0637817383-.0686035156.1310424805-.0997924805.2169189453l.0546875.055480957c.0737304688-.0372314453.1657104492,0,.2203979492,0l.055480957-.055480957.6412353516-.2167358398.5526123047-.1867675781s0,.0182495117.0372314453.0182495117c.0546875,0,.2025756836-.0932006836.3353271484-.139831543.0442504883-.0155029297.0867919922-.0258789062.1236572266-.0258789062l.110168457.0182495117v.110168457c-.055480957.0372924805-.0919189453.0919799805-.0919189453.1474609375-.0297241211.0181884766-.0672607422.0392456055-.0997314453.0583496094-.3284912109.1930541992-.7783203125.4303588867-1.1123657227.7312011719-.2758178711.2021484375-.6618652344.458984375-.9552001953.7166137695ZM37.0427246094,7.1510009766l-.0119018555.0042114258.0092773438-.0093994141.0026245117.0051879883ZM34.3807983398,13.9732666016c-.0919189453.0919799805-.1284179688.2021484375-.2385864258.294128418-.0919799805.0736694336-.2203979492.2203369141-.348815918.3305664062-.110168457.0736694336-.2393798828.1466064453-.3305664062.2385864258-.0171508789.0043334961-.028137207.005859375-.0438842773.0097045898h-.0001831055c-.1196899414.0289916992-.208190918.0457763672-.305480957.0457763672-.2568359375.2385864258-.3305664062.3670043945-.514465332.3670043945-.1831665039,0-.348815918-.1831054688-.348815918-.3305664062,0-.0181884766.0737304688-.2203369141.0737304688-.3123168945.0112915039-.0112915039.0227050781-.0155639648.0335693359-.0155639648.0043334961,0,.0062866211.0048217773.0104370117.0060424805.0196533203.0049438477.0372924805.0171508789.0479125977.0277709961.1799926758-.1799926758.4476928711-.4661254883.6141967773-.6851196289.0029296875-.0038452148.0076293945-.0086669922.0104980469-.0124511719.0182495117-.0364990234.0364379883-.0919799805.0546875-.0919799805h.055480957l.5327148438-.7530517578.0364379883-.055480957c.0737304688-.0911865234.1657104492-.2014160156.2386474609-.2933349609.5881958008-.9924926758,1.1755981445-2.0023803711,1.7819824219-2.9758300781.0737304688-.0737304688.1284790039-.1284790039.1838989258-.2021484375.0301513672-.0835571289.0474853516-.1721801758.0641479492-.2619628906.0236206055-.1274414062.0424194336-.2592163086.0642700195-.3991699219.0547485352-.0372314453.1102294922-.1102294922.1838989258-.1656494141.0275878906-.0045776367.0642700195-.0137329102.1044311523-.0289306641.1204223633-.0456542969.2717895508-.1455078125.2991333008-.3381347656.3677978516-.1473999023.7720947266-.2940673828,1.1573486328-.4224853516.2385864258-.0919799805.7166137695-.1657104492,1.0471801758-.2386474609.0364379883,0,.110168457-.0189819336.1466674805-.0189819336h.0736694336l.055480957.055480957-.0189819336.2203369141c-.1466674805.1284179688-.3852539062.3670654297-.569152832.5327148438-.1657104492.2203979492-.3670654297.4962158203-.5327148438.753112793-.0319213867.0079345703-.0646972656.0276489258-.0972290039.0505371094-.1171264648.0822753906-.2311401367.2423095703-.2888183594.3719482422-.0729370117.110168457-.1831665039.2386474609-.2933349609.3670654297l-.055480957.0736694336-.807800293,1.3040161133c0,.0372924805-.0189819336.0737304688-.0189819336.1102294922-.05078125.0171508789-.0825805664.0557861328-.1057128906.0955810547-.0269775391.0464477539-.0409545898.0952758789-.0409545898.1247558594,0,.0190429688.055480957.0190429688.0737304688.0372924805l.4376831055-.1620483398.9027709961-.3342285156c.0182495117.0182495117.0919799805.0182495117.0919799805.055480957v.2203979492c-.0166625977.0194702148-.0422363281.0388793945-.0618896484.0583496094-.0002441406.0002441406-.0004882812.0004272461-.0007324219.0006713867-.1098022461.1087646484-.2510986328.2174682617-.3599243164.3262329102-.2020874023.0919799805-.4407348633.2203979492-.6428833008.3123168945-.0919189453.0551147461-.1975708008.1286621094-.3123168945.2113647461-.1147460938.0827636719-.2385864258.1746826172-.3670043945.2666625977-.5327148438.348815918-1.0654296875.807800293-1.671875,1.2302856445ZM42.6289672852,13.4405517578l-.6611328125.404296875-.4779663086.1656494141-.2750854492.0729980469-.3495483398.0919189453-.2933349609.1466674805-.1656494141.0189819336-.918762207.8815307617-.973449707.6063842773-.5692138672.1102294922-.4772338867-.0372314453-.1656494141.0736694336-.2568359375-.0736694336-.404296875-.3305664062-.2203369141-.4225463867v-.110168457l-.055480957-.0182495117h-.0547485352l.0364990234-.0919799805-.2568359375-.458984375-.349609375-.2575683594-.1284179688-.1466674805v-.0547485352l.6801147461-.4224853516.2751464844-.1474609375.5881347656-.164855957.6428833008.3123168945.5327148438.2021484375,1.1201171875-.0372314453.3305664062-.6429443359.2203979492-.458984375.0736694336-.458984375.0328979492-.0858764648v.0001831055l.1841430664-.4805908203h-.0000610352l.2055664062-.5363769531.2203979492-.3487548828.5509033203-1.3959960938.404296875-.8267822266.404296875-.7348632812.3487548828-.164855957.1102294922-.2386474609.2385864258-.0737304688h.3860473633l.4606933594-.3250732422.1639404297-.1156616211.3305664062-.055480957c.1284790039,0,.3305664062-.0182495117.4407958984-.0182495117.0738525391,0,.1357421875.0102539062.1958618164.0293579102h.0000610352c.0444335938.0141601562.0878295898.0313110352.1346435547.0626220703.0736694336.0364990234.0919189453.1649169922.0736694336.2750854492-.055480957.2576293945-.0189819336.514465332-.0189819336.7720947266l-.5874023438,1.0463867188-.3670654297.4962158203-.4415283203.6611328125-.1831054688.3860473633-.3860473633.6428833008c-.0364990234.1284179688-.0737304688.2203979492-.1649169922.2203979492-.1049804688-.3139648438-.1868896484-.4951782227-.3817749023-.6344604492-.0786743164-.0562133789-.1715698242-.1076660156-.2983398438-.155090332l-.458984375.348815918-.1656494141.514465332.0189819336.0919189453-.2021484375.4217529297-.2940673828.5699462891-.2576293945.7166137695-.0911865234.1466674805v.0919189453l.2386474609.1102294922.9369506836-.055480957.0364990234-.1102294922h.3123168945l.0546875-.0546875.2576293945-.055480957.110168457-.0546875h.0547485352l-.0547485352.164855957ZM47.0761108398,16.2717895508h-2.3225097656v-.8955078125l.3179931641-.0729370117.212097168-.4161987305.2802734375-.5499267578.1910400391-.0696411133.1623535156-.3029174805.0088500977-.0037841797.0221557617.0889892578c.0140380859.2159423828.0420532227.5630493164.3037109375.8765258789l.1470947266.1762084961.2092285156.0944213867.3670043945.1657104492.1007080078.0454711914v.8635864258ZM55.3773803711,1.5926513672l-1.5980834961,1.5616455078-1.5244140625,1.8922119141c-.1102294922.3305664062-.3860473633.6056518555-.5699462891.9362182617l-.3123168945-.0911865234-.0547485352-.2940673828c.3305664062-.4407958984.7158813477-.8450317383.9916992188-1.3040161133l-.0736694336-.055480957-.3305664062.110168457c-.2933349609.2203979492-.5509643555.5327148438-.86328125.6983642578l-.514465332.6056518555-.0364990234.1292114258-.2568359375.1284179688-.2203979492.4042358398-.110168457.0364990234c-.2021484375.3123168945-.3677978516.6428833008-.6246337891.9552001953-.349609375.4772338867-.8450317383.7713623047-1.1209106445,1.2858276367-.4407348633.7530517578-.9552001953,1.2492675781-1.4141845703,1.9468994141-.0182495117.1284179688-.0737304688.2203979492-.0919799805.348815918l.1102294922-.0182495117,1.2492675781-1.1383666992.2386474609-.0737304688c.3860473633-.2385864258.6063842773-.4407348633.9369506836-.7348022461l.2125854492-.1126098633.7244262695-.3836669922c.3670043945-.3123168945.973449707-.458984375,1.4141845703-.6975708008l.2386474609.0729370117c.1838989258-.1284179688.4224853516-.1649169922.6793212891-.2385864258l.1292114258.055480957.2385864258.3305664062-.4962158203.973449707c.0737304688.0364379883.1102294922.0546875.2021484375.1284179688l-.4407348633.2021484375c-.0182495117.0919189453-.0364990234.1838989258-.0364990234.2758178711l-.2758178711.3123168945-.0547485352.1831665039c-.3312988281.4407348633-.6983642578.8267822266-.9552001953,1.3229980469l-.2758789062.2386474609-.2203369141.4224853516c.1284179688.0737304688.2568359375-.0182495117.4224853516-.0372314453l.1838989258-.1284179688.348815918-.0546875c.2750854492-.0919799805.5509643555-.2021484375.8267822266-.2758789062l-.0189819336.110168457c-.1031494141.0742797852-.2080078125.1290283203-.3115844727.1930541992-.3572998047.2208862305-.717956543.4098510742-1.1026611328.6519775391l-.0919189453.1284179688-1.3405151367.6801757812-.3305664062.2933349609-.2385864258-.0729980469-.5327148438.404296875h-.1292114258l-.1466674805.2568359375-.4224853516.294128418-.3107299805-.1402587891-.0563354492-.0254516602c-.0712280273-.0853271484-.0699462891-.2130126953-.0805664062-.3352050781-.003112793-.0355834961-.003112793-.0724487305-.0113525391-.1055297852.2568359375-.2021484375.569152832-.2940673828.8450317383-.4407348633.110168457-.1102294922.1831054688-.2203979492.3305664062-.294128418l.110168457-.2750854492c.458984375-.4597167969.7158203125-1.0289306641,1.1755981445-1.4879150391l.0546875-.2021484375.6801757812-1.0471191406.2203369141-.5327148438c-.0182495117-.0737304688-.0736694336-.1466674805-.1473999023-.2568969727l-.2750854492.0547485352s-.2276000977.1190795898-.522277832.2788085938c-.4071044922.2206420898-.9459838867.5211181641-1.2232666016.712890625-.3305664062.3305664062-.6793823242.5881958008-1.0099487305.918762207l-.3123168945.0736694336-.2602539062.2787475586-.2542114258.2722167969-.3123168945.6056518555-.2385864258.2211303711-.0737304688.2385864258-.5137329102.2203979492-.1473999023.2750854492-.2021484375.0737304688-.458984375.9005126953-.2386474609.0546875c-.1284179688.1102294922-.2203369141.2021484375-.3677978516.348815918l-.3487548828.055480957-.2021484375.1649169922c-.1466674805,0-.2568359375.0919189453-.4407958984,0v-.3670654297l.1839599609-.2021484375c0-.0737304688-.0372924805-.1838989258,0-.2568359375.2020874023-.1656494141.2385864258-.4779663086.4771728516-.6428833008l.0737304688-.2758789062c.0737304688-.1656494141.2386474609-.2021484375.348815918-.348815918v-.2020874023l.3677978516-.3860473633.2750854492-.4772338867.0372314453-.3305664062.2203979492-.1284179688c.4483642578-.7000732422.8619384766-1.4179077148,1.2916870117-2.1357421875.0101928711-.0169677734.0203857422-.0335693359.0305786133-.0505371094l.2203369141-.2021484375v-.1838989258h.1657104492l.0364379883-.1831665039c.4147949219-.5570678711.7944335938-1.1276245117,1.1971435547-1.7028198242,0-.0000610352.0001220703-.0000610352.0001220703-.0001220703.2739868164-.391418457.5568847656-.7845458984.8760986328-1.1783447266.0007324219-.0008544922.0012207031-.0017700195.001953125-.0026245117v-.1838989258l.2576293945-.110168457v-.2568359375l.2568359375-.055480957c.4225463867-.6064453125.8268432617-1.212097168,1.4142456055-1.7265625l1.0471801758-.9916992188.1284179688-.0189819336c.055480957-.0911865234.0189819336-.1831054688.1473999023-.2750854492l.2021484375.0547485352.3305664062-.2568969727.2385864258.0919799805c.0368652344-.0277709961.0735473633-.0415649414.1102294922-.0531005859.0366821289-.0114746094.0733032227-.0206298828.110168457-.0388793945l.2758789062.0364990234.2203369141.2203979492c.2568969727-.0911865234.4954833984-.0911865234.7895507812-.2203979492l.6246948242-.8815307617c.110168457-.0181884766.2940673828,0,.4407348633-.0546875l.1656494141.0729370117.0547485352.2203979492h.055480957l-.0919799805.2203369141ZM39.028503418,14.4140014648l-.8450317383.0190429688-.5874023438.0911865234-.0372924805.0737304688.3305664062.3305053711.3123779297.1102294922h.4962158203l.3305664062-.2750854492.1284179688-.3305664062h-.0364990234l-.0919189453-.0190429688Z"/></g></svg>